<svg width="266" height="60" viewBox="0 0 266 60" fill="none" xmlns="http://www.w3.org/2000/svg">
<path d="M38.8125 42.4688C36.7292 44.2396 34.4062 45.6042 31.8438 46.5625C29.2812 47.5 26.6146 47.9688 23.8438 47.9688C21.7188 47.9688 19.6667 47.6875 17.6875 47.125C15.7292 46.5833 13.8958 45.8125 12.1875 44.8125C10.4792 43.7917 8.91667 42.5833 7.5 41.1875C6.08333 39.7708 4.875 38.2083 3.875 36.5C2.875 34.7708 2.09375 32.9167 1.53125 30.9375C0.989583 28.9583 0.71875 26.9062 0.71875 24.7812C0.71875 22.6562 0.989583 20.6146 1.53125 18.6562C2.09375 16.6979 2.875 14.8646 3.875 13.1562C4.875 11.4271 6.08333 9.86458 7.5 8.46875C8.91667 7.05208 10.4792 5.84375 12.1875 4.84375C13.8958 3.84375 15.7292 3.07292 17.6875 2.53125C19.6667 1.96875 21.7188 1.6875 23.8438 1.6875C26.6146 1.6875 29.2812 2.16667 31.8438 3.125C34.4062 4.0625 36.7292 5.41667 38.8125 7.1875L34.125 15C32.7708 13.625 31.2083 12.5521 29.4375 11.7812C27.6667 10.9896 25.8021 10.5938 23.8438 10.5938C21.8854 10.5938 20.0417 10.9688 18.3125 11.7188C16.6042 12.4688 15.1042 13.4896 13.8125 14.7812C12.5208 16.0521 11.5 17.5521 10.75 19.2812C10 20.9896 9.625 22.8229 9.625 24.7812C9.625 26.7604 10 28.6146 10.75 30.3438C11.5 32.0729 12.5208 33.5833 13.8125 34.875C15.1042 36.1667 16.6042 37.1875 18.3125 37.9375C20.0417 38.6875 21.8854 39.0625 23.8438 39.0625C24.9688 39.0625 26.0625 38.9271 27.125 38.6562C28.1875 38.3854 29.1979 38.0104 30.1562 37.5312V24.7812H38.8125V42.4688ZM69.0938 43.0938C68.4062 43.7188 67.6667 44.3125 66.875 44.875C66.1042 45.4167 65.2917 45.8958 64.4375 46.3125C63.5833 46.7083 62.6979 47.0208 61.7812 47.25C60.8854 47.5 59.9688 47.625 59.0312 47.625C56.9688 47.625 55.0312 47.2604 53.2188 46.5312C51.4062 45.8021 49.8125 44.7708 48.4375 43.4375C47.0833 42.0833 46.0104 40.4479 45.2188 38.5312C44.4479 36.5938 44.0625 34.4271 44.0625 32.0312V13.5312H52.5625V32.0312C52.5625 33.1562 52.7292 34.1667 53.0625 35.0625C53.4167 35.9375 53.8854 36.6771 54.4688 37.2812C55.0521 37.8854 55.7292 38.3438 56.5 38.6562C57.2917 38.9688 58.1354 39.125 59.0312 39.125C59.9062 39.125 60.7292 38.9271 61.5 38.5312C62.2917 38.1146 62.9792 37.5729 63.5625 36.9062C64.1458 36.2396 64.6042 35.4896 64.9375 34.6562C65.2708 33.8021 65.4375 32.9271 65.4375 32.0312V13.5312H73.9688V47H71.9062L69.0938 43.0938ZM97.2812 47C95.2188 47 93.2812 46.6146 91.4688 45.8438C89.6562 45.0521 88.0625 43.9792 86.6875 42.625C85.3333 41.25 84.2604 39.6562 83.4688 37.8438C82.6979 36.0312 82.3125 34.0938 82.3125 32.0312V22.0938H78.1562V13.5938H82.3125V0.21875H90.8125V13.5938H103.75V22.0938H90.8125V32.0312C90.8125 32.9271 90.9792 33.7708 91.3125 34.5625C91.6458 35.3333 92.1042 36.0104 92.6875 36.5938C93.2708 37.1771 93.9583 37.6458 94.75 38C95.5417 38.3333 96.3854 38.5 97.2812 38.5H103.75V47H97.2812ZM116.625 59.75V51.1562L121.375 51.2188C122.208 51.2188 123.01 51.0833 123.781 50.8125C124.552 50.5417 125.26 50.1667 125.906 49.6875C126.573 49.2083 127.156 48.6354 127.656 47.9688C128.156 47.3229 128.562 46.6146 128.875 45.8438C127.938 46.2396 126.979 46.6354 126 47.0312C125.042 47.4271 124.073 47.625 123.094 47.625C121.031 47.625 119.094 47.2604 117.281 46.5312C115.469 45.8021 113.875 44.7708 112.5 43.4375C111.146 42.0833 110.073 40.4479 109.281 38.5312C108.51 36.5938 108.125 34.4271 108.125 32.0312V13.5312H116.625V32.0312C116.625 33.2188 116.792 34.2604 117.125 35.1562C117.479 36.0312 117.948 36.7708 118.531 37.375C119.115 37.9583 119.792 38.3958 120.562 38.6875C121.354 38.9792 122.198 39.125 123.094 39.125C123.969 39.125 124.792 38.9271 125.562 38.5312C126.354 38.1146 127.042 37.5729 127.625 36.9062C128.208 36.2396 128.667 35.4896 129 34.6562C129.333 33.8021 129.5 32.9271 129.5 32.0312V13.5312H138.094V42.7812C138.073 45.1354 137.615 47.3438 136.719 49.4062C135.823 51.4688 134.594 53.2708 133.031 54.8125C131.49 56.3542 129.688 57.5729 127.625 58.4688C125.562 59.3646 123.354 59.8125 121 59.8125L116.625 59.75ZM199.312 33.5625C199.312 35.4167 198.958 37.1562 198.25 38.7812C197.542 40.4062 196.573 41.8333 195.344 43.0625C194.135 44.2708 192.719 45.2292 191.094 45.9375C189.469 46.6458 187.729 47 185.875 47H163.469V2.1875H185.875C187.729 2.1875 189.469 2.54167 191.094 3.25C192.719 3.95833 194.135 4.92708 195.344 6.15625C196.573 7.36458 197.542 8.78125 198.25 10.4062C198.958 12.0312 199.312 13.7708 199.312 15.625C199.312 16.4583 199.198 17.3125 198.969 18.1875C198.74 19.0625 198.417 19.9062 198 20.7188C197.583 21.5312 197.083 22.2708 196.5 22.9375C195.917 23.6042 195.271 24.1562 194.562 24.5938C195.292 24.9896 195.948 25.5312 196.531 26.2188C197.115 26.8854 197.615 27.625 198.031 28.4375C198.448 29.25 198.76 30.1042 198.969 31C199.198 31.875 199.312 32.7292 199.312 33.5625ZM172.438 38.0312H185.875C186.5 38.0312 187.083 37.9167 187.625 37.6875C188.167 37.4583 188.635 37.1458 189.031 36.75C189.448 36.3333 189.771 35.8542 190 35.3125C190.229 34.7708 190.344 34.1875 190.344 33.5625C190.344 32.9375 190.229 32.3542 190 31.8125C189.771 31.2708 189.448 30.8021 189.031 30.4062C188.635 29.9896 188.167 29.6667 187.625 29.4375C187.083 29.2083 186.5 29.0938 185.875 29.0938H172.438V38.0312ZM172.438 20.125H185.875C186.5 20.125 187.083 20.0104 187.625 19.7812C188.167 19.5521 188.635 19.2396 189.031 18.8438C189.448 18.4271 189.771 17.9479 190 17.4062C190.229 16.8438 190.344 16.25 190.344 15.625C190.344 15 190.229 14.4167 190 13.875C189.771 13.3333 189.448 12.8646 189.031 12.4688C188.635 12.0521 188.167 11.7292 187.625 11.5C187.083 11.2708 186.5 11.1562 185.875 11.1562H172.438V20.125ZM237.531 29.9688C237.531 32.4688 237.083 34.8021 236.188 36.9688C235.292 39.1146 234.073 40.9792 232.531 42.5625C230.99 44.125 229.177 45.3646 227.094 46.2812C225.031 47.1771 222.812 47.625 220.438 47.625C218.083 47.625 215.865 47.1771 213.781 46.2812C211.719 45.3646 209.906 44.125 208.344 42.5625C206.802 40.9792 205.583 39.1146 204.688 36.9688C203.792 34.8021 203.344 32.4688 203.344 29.9688C203.344 27.4271 203.792 25.0729 204.688 22.9062C205.583 20.7396 206.802 18.875 208.344 17.3125C209.906 15.7292 211.719 14.4896 213.781 13.5938C215.865 12.6979 218.083 12.25 220.438 12.25C222.812 12.25 225.031 12.6771 227.094 13.5312C229.177 14.3646 230.99 15.5625 232.531 17.125C234.073 18.6667 235.292 20.5312 236.188 22.7188C237.083 24.8854 237.531 27.3021 237.531 29.9688ZM228.938 29.9688C228.938 28.5938 228.708 27.3542 228.25 26.25C227.812 25.125 227.208 24.1667 226.438 23.375C225.667 22.5625 224.76 21.9479 223.719 21.5312C222.698 21.0938 221.604 20.875 220.438 20.875C219.271 20.875 218.167 21.0938 217.125 21.5312C216.104 21.9479 215.208 22.5625 214.438 23.375C213.688 24.1667 213.094 25.125 212.656 26.25C212.219 27.3542 212 28.5938 212 29.9688C212 31.2604 212.219 32.4583 212.656 33.5625C213.094 34.6667 213.688 35.625 214.438 36.4375C215.208 37.25 216.104 37.8958 217.125 38.375C218.167 38.8333 219.271 39.0625 220.438 39.0625C221.604 39.0625 222.698 38.8438 223.719 38.4062C224.76 37.9688 225.667 37.3542 226.438 36.5625C227.208 35.7708 227.812 34.8125 228.25 33.6875C228.708 32.5625 228.938 31.3229 228.938 29.9688ZM258.781 47C256.719 47 254.781 46.6146 252.969 45.8438C251.156 45.0521 249.562 43.9792 248.188 42.625C246.833 41.25 245.76 39.6562 244.969 37.8438C244.198 36.0312 243.812 34.0938 243.812 32.0312V22.0938H239.656V13.5938H243.812V0.21875H252.312V13.5938H265.25V22.0938H252.312V32.0312C252.312 32.9271 252.479 33.7708 252.812 34.5625C253.146 35.3333 253.604 36.0104 254.188 36.5938C254.771 37.1771 255.458 37.6458 256.25 38C257.042 38.3333 257.885 38.5 258.781 38.5H265.25V47H258.781Z" fill="#FFF2E7"/>
</svg>
