<svg width="62" height="62" viewBox="0 0 62 62" fill="none" xmlns="http://www.w3.org/2000/svg">
<circle cx="31" cy="31" r="30" fill="#477EFF" stroke="#1D56AB" stroke-width="2"/>
<path d="M29.4414 34.584C28.7904 35.1374 28.0645 35.5638 27.2637 35.8633C26.4629 36.1562 25.6296 36.3027 24.7637 36.3027C24.0996 36.3027 23.4583 36.2148 22.8398 36.0391C22.2279 35.8698 21.6549 35.6289 21.1211 35.3164C20.5872 34.9974 20.099 34.6198 19.6562 34.1836C19.2135 33.7409 18.8359 33.2526 18.5234 32.7188C18.2109 32.1784 17.9668 31.599 17.791 30.9805C17.6217 30.362 17.5371 29.7207 17.5371 29.0566C17.5371 28.3926 17.6217 27.7546 17.791 27.1426C17.9668 26.5306 18.2109 25.9577 18.5234 25.4238C18.8359 24.8835 19.2135 24.3952 19.6562 23.959C20.099 23.5163 20.5872 23.1387 21.1211 22.8262C21.6549 22.5137 22.2279 22.2728 22.8398 22.1035C23.4583 21.9277 24.0996 21.8398 24.7637 21.8398C25.6296 21.8398 26.4629 21.9896 27.2637 22.2891C28.0645 22.582 28.7904 23.0052 29.4414 23.5586L27.9766 26C27.5534 25.5703 27.0651 25.235 26.5117 24.9941C25.9583 24.7467 25.3757 24.623 24.7637 24.623C24.1517 24.623 23.5755 24.7402 23.0352 24.9746C22.5013 25.209 22.0326 25.528 21.6289 25.9316C21.2253 26.3288 20.9062 26.7975 20.6719 27.3379C20.4375 27.8717 20.3203 28.4447 20.3203 29.0566C20.3203 29.6751 20.4375 30.2546 20.6719 30.7949C20.9062 31.3353 21.2253 31.8073 21.6289 32.2109C22.0326 32.6146 22.5013 32.9336 23.0352 33.168C23.5755 33.4023 24.1517 33.5195 24.7637 33.5195C25.1152 33.5195 25.457 33.4772 25.7891 33.3926C26.1211 33.3079 26.4368 33.1908 26.7363 33.041V29.0566H29.4414V34.584ZM42.8008 31.8008C42.8008 32.3802 42.6901 32.9238 42.4688 33.4316C42.2474 33.9395 41.9447 34.3854 41.5605 34.7695C41.1829 35.1471 40.7402 35.4466 40.2324 35.668C39.7246 35.8893 39.181 36 38.6016 36H31.5996V21.9961H38.6016C39.181 21.9961 39.7246 22.1068 40.2324 22.3281C40.7402 22.5495 41.1829 22.8522 41.5605 23.2363C41.9447 23.6139 42.2474 24.0566 42.4688 24.5645C42.6901 25.0723 42.8008 25.6159 42.8008 26.1953C42.8008 26.4557 42.765 26.7227 42.6934 26.9961C42.6217 27.2695 42.5208 27.5332 42.3906 27.7871C42.2604 28.041 42.1042 28.2721 41.9219 28.4805C41.7396 28.6888 41.5378 28.8613 41.3164 28.998C41.5443 29.1217 41.7493 29.291 41.9316 29.5059C42.1139 29.7142 42.2702 29.9453 42.4004 30.1992C42.5306 30.4531 42.6283 30.7201 42.6934 31C42.765 31.2734 42.8008 31.5404 42.8008 31.8008ZM34.4023 33.1973H38.6016C38.7969 33.1973 38.9792 33.1615 39.1484 33.0898C39.3177 33.0182 39.4642 32.9206 39.5879 32.7969C39.7181 32.6667 39.819 32.5169 39.8906 32.3477C39.9622 32.1784 39.998 31.9961 39.998 31.8008C39.998 31.6055 39.9622 31.4232 39.8906 31.2539C39.819 31.0846 39.7181 30.9382 39.5879 30.8145C39.4642 30.6842 39.3177 30.5833 39.1484 30.5117C38.9792 30.4401 38.7969 30.4043 38.6016 30.4043H34.4023V33.1973ZM34.4023 27.6016H38.6016C38.7969 27.6016 38.9792 27.5658 39.1484 27.4941C39.3177 27.4225 39.4642 27.3249 39.5879 27.2012C39.7181 27.071 39.819 26.9212 39.8906 26.752C39.9622 26.5762 39.998 26.3906 39.998 26.1953C39.998 26 39.9622 25.8177 39.8906 25.6484C39.819 25.4792 39.7181 25.3327 39.5879 25.209C39.4642 25.0788 39.3177 24.9779 39.1484 24.9062C38.9792 24.8346 38.7969 24.7988 38.6016 24.7988H34.4023V27.6016Z" fill="white"/>
<line x1="21.34" y1="45" x2="40.04" y2="45" stroke="black" stroke-width="3" stroke-linecap="round"/>
<ellipse cx="22.94" cy="45.26" rx="3.1" ry="3.1" fill="black"/>
<ellipse cx="38.44" cy="45.26" rx="3.1" ry="3.1" fill="black"/>
</svg>
